{
  "accessors": [
    {
      "bufferView": 2,
      "componentType": 5126,
      "count": 65532,
      "max": [
        9.899999618530273,
        19.600000381469727,
        9.699999809265137
      ],
      "min": [
        -9.699999809265137,
        0.0,
        -10.0
      ],
      "type": "VEC3"
    },
    {
      "bufferView": 2,
      "byteOffset": 786384,
      "componentType": 5126,
      "count": 65532,
      "max": [
        1.0,
        1.0,
        0.0001240501005668193
      ],
      "min": [
        -1.0,
        -1.0,
        -1.0
      ],
      "type": "VEC3"
    },
    {
      "bufferView": 1,
      "componentType": 5126,
      "count": 65532,
      "max": [
        0.36132800579071045,
        0.5
      ],
      "min": [
        0.02929689921438694,
        0.5
      ],
      "type": "VEC2"
    },
    {
      "bufferView": 0,
      "componentType": 5125,
      "count": 127095,
      "type": "SCALAR"
    },
    {
      "bufferView": 2,
      "byteOffset": 1572768,
      "componentType": 5126,
      "count": 27402,
      "max": [
        9.899999618530273,
        19.600000381469727,
        9.699999809265137
      ],
      "min": [
        -9.699999809265137,
        0.0,
        -10.0
      ],
      "type": "VEC3"
    },
    {
      "bufferView": 2,
      "byteOffset": 1901592,
      "componentType": 5126,
      "count": 27402,
      "max": [
        1.0,
        0.00037952701677568257,
        1.0
      ],
      "min": [
        -1.0,
        -4.671259375754744e-05,
        -1.0
      ],
      "type": "VEC3"
    },
    {
      "bufferView": 1,
      "byteOffset": 524256,
      "componentType": 5126,
      "count": 27402,
      "max": [
        0.36132800579071045,
        0.5
      ],
      "min": [
        0.02929689921438694,
        0.5
      ],
      "type": "VEC2"
    },
    {
      "bufferView": 0,
      "byteOffset": 508380,
      "componentType": 5125,
      "count": 52173,
      "type": "SCALAR"
    }
  ],
  "asset": {
    "extras": {
      "author": "DEDROX (https://sketchfab.com/Raghavprasanna)",
      "license": "CC-BY-4.0 (http://creativecommons.org/licenses/by/4.0/)",
      "source": "https://sketchfab.com/3d-models/voxel-free-c035def6753a4b97a0e90d00b9d94785",
      "title": "Voxel free"
    },
    "generator": "Sketchfab-12.67.0",
    "version": "2.0"
  },
  "bufferViews": [
    {
      "buffer": 0,
      "byteLength": 717072,
      "name": "floatBufferViews",
      "target": 34963
    },
    {
      "buffer": 0,
      "byteLength": 743472,
      "byteOffset": 717072,
      "byteStride": 8,
      "name": "floatBufferViews",
      "target": 34962
    },
    {
      "buffer": 0,
      "byteLength": 2230416,
      "byteOffset": 1460544,
      "byteStride": 12,
      "name": "floatBufferViews",
      "target": 34962
    }
  ],
  "buffers": [
    {
      "byteLength": 3690960,
      "uri": "scene.bin"
    }
  ],
  "images": [
    {
      "uri": "textures/palette_baseColor.png"
    }
  ],
  "materials": [
    {
      "doubleSided": true,
      "name": "palette",
      "pbrMetallicRoughness": {
        "baseColorTexture": {
          "index": 0
        },
        "metallicFactor": 0.0
      }
    }
  ],
  "meshes": [
    {
      "name": "ObjObject_palette_0",
      "primitives": [
        {
          "attributes": {
            "NORMAL": 1,
            "POSITION": 0,
            "TEXCOORD_0": 2
          },
          "indices": 3,
          "material": 0,
          "mode": 4
        }
      ]
    },
    {
      "name": "ObjObject_palette_0",
      "primitives": [
        {
          "attributes": {
            "NORMAL": 5,
            "POSITION": 4,
            "TEXCOORD_0": 6
          },
          "indices": 7,
          "material": 0,
          "mode": 4
        }
      ]
    }
  ],
  "nodes": [
    {
      "children": [
        1
      ],
      "matrix": [
        0.004203666467219591,
        0.0,
        0.0,
        0.0,
        0.0,
        9.334014599503762e-19,
        -0.004203666467219591,
        0.0,
        0.0,
        0.004203666467219591,
        9.334014599503762e-19,
        0.0,
        0.0,
        0.0,
        0.0,
        1.0
      ],
      "name": "Sketchfab_model"
    },
    {
      "children": [
        2
      ],
      "matrix": [
        1.0,
        0.0,
        0.0,
        0.0,
        0.0,
        0.0,
        1.0,
        0.0,
        0.0,
        -1.0,
        0.0,
        0.0,
        0.0,
        0.0,
        0.0,
        1.0
      ],
      "name": "c25857ee7c024df2b3a447300c391c9d.fbx"
    },
    {
      "children": [
        3,
        6
      ],
      "name": "RootNode"
    },
    {
      "children": [
        4,
        5
      ],
      "matrix": [
        100.0,
        0.0,
        0.0,
        0.0,
        0.0,
        99.99999999999866,
        1.6292067073209114e-05,
        0.0,
        0.0,
        -1.6292067073209114e-05,
        99.99999999999866,
        0.0,
        0.0,
        0.0,
        0.0,
        1.0
      ],
      "name": "ObjObject"
    },
    {
      "mesh": 0,
      "name": "ObjObject_palette_0"
    },
    {
      "mesh": 1,
      "name": "ObjObject_palette_0"
    },
    {
      "children": [
        7
      ],
      "matrix": [
        58.13442491483837,
        -42.59839970933266,
        69.3236139864772,
        0.0,
        27.37442647218433,
        90.47306123081135,
        32.638389068181425,
        0.0,
        -76.62262131750401,
        0.0028019521205777855,
        64.25705655371438,
        0.0,
        -3224.055908203125,
        3206.22216796875,
        -3802.843505859375,
        1.0
      ],
      "name": "Camera"
    },
    {
      "name": "Object_7"
    }
  ],
  "samplers": [
    {
      "magFilter": 9729,
      "minFilter": 9987,
      "wrapS": 10497,
      "wrapT": 10497
    }
  ],
  "scene": 0,
  "scenes": [
    {
      "name": "Sketchfab_Scene",
      "nodes": [
        0
      ]
    }
  ],
  "textures": [
    {
      "sampler": 0,
      "source": 0
    }
  ]
}
